<svg viewBox="0 0 114 76" fill="none" xmlns="http://www.w3.org/2000/svg">
  <path d="M114 60.087C113.854 60.527 113.708 60.9671 113.562 61.2604C112.831 63.4607 111.662 64.9276 109.323 65.5143C108.154 65.8077 106.985 65.661 105.962 65.2209C103.038 64.1941 100.115 63.1673 97.1923 62.1405C93.3923 60.9671 89.5923 60.087 85.6461 59.3535C85.2077 59.2068 84.7692 59.3535 84.4769 59.6469C81.2615 61.5538 77.9 63.0206 74.2462 63.9008C72.3462 64.3408 70.3 64.6342 68.2538 64.9276C66.5 65.0742 64.7461 65.2209 62.9923 65.2209C62.1154 65.2209 61.2385 65.2209 60.3615 65.0742C59.7769 64.9276 59.3385 65.2209 58.7538 65.3676C55.5385 67.2745 52.6154 69.4748 49.9846 71.9684C49.4 72.5552 48.8154 72.9952 48.2308 73.5819C44.8692 76.6623 39.6077 75.1955 38.4385 70.7949C38.4385 70.6483 38.2923 70.3549 38.1462 70.0615C37.8538 70.3549 37.5615 70.5016 37.4154 70.7949C36.3923 71.8217 35.5154 72.8485 34.4923 73.8753C32.7385 75.7822 30.6923 76.3689 28.3538 75.7822C25.8692 75.0488 24.2615 73.4353 23.6769 70.9416C23.6769 70.7949 23.5308 70.5016 23.3846 70.3549C23.3846 69.4748 23.3846 68.448 23.3846 67.5679C23.3846 67.4212 23.5308 67.4212 23.5308 67.2745C23.9692 64.6342 25.1385 62.4339 26.7462 60.3803C28.6462 58.0334 30.6923 55.8331 32.7385 53.6328C32.8846 53.4861 33.0308 53.1928 33.3231 53.0461C33.0308 52.606 32.7385 52.3127 32.4462 51.8726C29.6692 47.9121 29.8154 42.1914 33.0308 38.671C37.1231 33.8304 44.4308 34.1238 48.2308 39.2577C48.3769 39.5511 48.5231 39.6978 48.8154 39.9912C53.7846 35.5906 59.4846 32.2169 65.9154 29.8699C65.6231 29.5765 65.3308 29.4299 65.0385 29.2832C61.5308 26.9362 58.0231 24.4426 54.9538 21.5089C53.2 19.8954 51.5923 18.1351 50.7154 15.9349C50.4231 15.3481 50.2769 14.6147 50.1308 13.8813C49.6923 10.3609 52.1769 8.30727 54.6615 7.72053C56.7077 7.13379 58.4615 7.13379 60.3615 7.57385C62.9923 8.16059 65.4769 9.04069 67.9615 10.0675C68.2538 10.2142 68.5462 10.3609 68.9846 10.5075C68.6923 9.9208 68.5462 9.48075 68.4 9.04069C67.8154 7.42716 67.6692 5.81363 67.8154 4.05342C67.9615 2.2932 68.9846 1.11972 70.5923 0.532984C72.4923 -0.20044 74.3923 -0.20044 76.2923 0.679668C77.9 1.41309 79.2154 2.43988 80.5308 3.61336C82.8692 5.96032 84.7692 8.60064 86.5231 11.5343C87.2538 12.7078 87.8385 13.8813 88.4231 15.0548C88.7154 15.4948 89.0077 15.6415 89.4462 15.7882C93.1 16.0816 96.6077 16.815 99.9692 18.1351C103.185 19.4553 106.108 21.3622 108.154 24.2959C110.054 27.2296 110.931 30.31 110.2 33.8304C109.615 36.4707 107.862 38.5243 105.815 40.1378C103.185 42.1914 100.115 43.6583 96.9 44.5384C95.4385 44.9784 93.8308 45.2718 92.3692 45.5652C92.2231 45.5652 92.0769 45.5652 91.9308 45.8585C92.0769 45.8585 92.3692 46.0052 92.5154 46.0052C96.1692 46.8853 99.8231 47.9121 103.477 48.7922C104.354 49.0856 105.231 49.379 106.254 49.6723C109.031 50.6991 111.369 52.4594 112.831 55.0997C113.269 55.8331 113.562 56.8599 113.854 57.74C113.854 57.8867 114 58.1801 114 58.3267C114 58.7668 114 59.3535 114 60.087ZM79.2154 43.0715C83.7462 43.0715 88.2769 42.4848 92.6615 41.6047C95.2923 41.1646 97.7769 40.4312 100.115 39.2577C102.162 38.2309 104.062 37.0575 105.377 35.2972C106.546 33.8304 107.131 32.2169 106.838 30.31C106.692 28.8431 106.108 27.3763 105.231 26.0561C103.769 23.8558 101.869 22.389 99.5308 21.3622C95.8769 19.602 92.0769 18.8686 88.1308 18.7219C86.9615 18.7219 86.2308 18.2818 85.7923 17.255C85.2077 15.9349 84.4769 14.468 83.6 13.1479C81.8462 10.2142 80.0923 7.57385 77.6077 5.22689C76.7308 4.34679 75.7077 3.76005 74.5385 3.31999C73.8077 3.02662 73.0769 3.02662 72.2 3.17331C71.3231 3.46668 71.0308 3.76005 71.1769 4.64015C71.3231 6.69374 71.7615 8.60064 72.7846 10.5075C73.2231 11.5343 73.9538 12.4144 74.3923 13.2945C74.8308 14.028 74.8308 14.7614 74.2462 15.3481C73.6615 15.9349 72.9308 16.0816 72.2 15.7882C72.0538 15.7882 72.0538 15.6415 71.9077 15.6415C69.5692 14.6147 67.3769 13.4412 65.0385 12.4144C62.5538 11.3876 60.0692 10.5075 57.4385 10.3609C56.4154 10.3609 55.5385 10.3609 54.6615 10.9476C53.7846 11.5343 53.6385 12.1211 53.9308 13.0012C54.2231 13.7346 54.5154 14.3213 54.8077 14.9081C55.8308 16.5216 57.1461 17.9885 58.6077 19.3086C61.9692 22.389 65.7692 25.0293 69.5692 27.3763C70.1538 27.8163 70.7385 28.1097 71.4692 28.5498C72.0538 28.9898 72.4923 29.5765 72.3462 30.31C72.2 31.0434 71.7615 31.6301 71.0308 31.7768C70.7385 31.7768 70.4462 31.9235 70.1538 31.9235C65.7692 32.9503 61.6769 34.7105 57.7308 37.0575C54.8077 38.8177 52.1769 41.018 49.6923 43.3649C48.5231 44.5384 47.2077 44.245 46.4769 42.7782C46.3308 42.3381 46.1846 42.0447 45.8923 41.6047C44.4308 39.4044 42.5308 38.2309 39.9 38.5243C37.1231 38.8177 35.3692 40.4312 34.4923 43.0715C33.6154 46.0052 34.2 48.7922 36.6846 50.8458C37.7077 51.7259 37.8538 53.0461 36.8308 54.0729C34.4923 56.4198 32.3 58.9135 30.2538 61.4071C28.9385 62.874 27.9154 64.6342 27.3308 66.5411C27.0385 67.5679 26.8923 68.5947 27.1846 69.7681C27.4769 70.9416 28.2077 71.675 29.3769 72.1151C30.5462 72.4085 31.2769 71.9684 32.0077 71.0883C32.7385 70.3549 33.4692 69.4748 34.2 68.7413C37.8538 64.4875 42.2385 61.2604 47.2077 58.7668C47.5 58.6201 47.9385 58.4734 48.2308 58.4734C50.4231 58.3267 52.4692 58.7668 54.3692 59.6469C55.2462 60.087 56.2692 60.3803 57.2923 60.6737C61.5308 61.9939 65.6231 61.7005 69.8615 61.1137C74.6846 60.527 79.0692 58.7668 83.0154 56.1265C83.4538 55.8331 84.0385 55.6864 84.6231 55.8331C90.1769 56.7132 95.7308 58.1801 100.992 59.9403C102.892 60.527 104.792 61.2604 106.692 61.9939C108.008 62.4339 109.031 61.9939 109.615 60.6737C110.2 59.3535 110.054 58.1801 109.469 56.8599C108.446 54.8063 106.838 53.4861 104.792 52.7527C102.6 51.8726 100.262 51.2859 98.0692 50.6991C90.7615 48.7922 83.3077 47.1787 75.8538 46.4453C74.8308 46.2986 74.1 45.5652 74.1 44.5384C74.1 43.6583 74.9769 42.9249 76 42.9249C77.4615 43.0715 78.3385 43.0715 79.2154 43.0715ZM54.6615 63.6074C52.9077 62.874 51.1538 62.1405 49.4 62.1405C49.1077 62.1405 48.8154 62.1405 48.5231 62.2872C46.1846 63.314 43.9923 64.7809 42.0923 66.5411C41.8 66.6878 41.6538 67.1278 41.6538 67.4212C41.6538 68.1546 41.6538 68.888 41.6538 69.6215C41.6538 70.6482 42.0923 71.3817 43.1154 71.675C44.1385 72.1151 45.0154 71.9684 45.7462 71.235C46.1846 70.7949 46.6231 70.5016 47.0615 70.0615C49.2538 67.8612 51.5923 65.8077 54.2231 64.0474C54.3692 63.9008 54.3692 63.7541 54.6615 63.6074ZM92.3692 25.176C90.4692 25.176 88.8615 26.7895 88.8615 28.6964C88.8615 30.6033 90.3231 32.2169 92.3692 32.3636C94.4154 32.3636 96.0231 30.8967 96.0231 28.8431C95.8769 26.7895 94.4154 25.3227 92.3692 25.176ZM31.5692 21.0688C31.5692 20.042 30.8385 19.3086 29.8154 19.3086H14.9077C13.8846 19.3086 13.1538 20.042 13.1538 21.0688C13.1538 22.0956 13.8846 22.8291 14.9077 22.8291H29.8154C30.6923 22.8291 31.5692 22.0956 31.5692 21.0688ZM21.3385 37.2041C21.3385 36.1774 20.6077 35.4439 19.5846 35.4439H4.67692C3.65385 35.4439 2.92308 36.1774 2.92308 37.2041C2.92308 38.2309 3.65385 38.9644 4.67692 38.9644H19.5846C20.4615 38.9644 21.3385 38.2309 21.3385 37.2041ZM18.4154 52.4594C18.4154 51.4326 17.6846 50.6991 16.6615 50.6991H1.75385C0.730769 50.6991 0 51.4326 0 52.4594C0 53.4861 0.730769 54.2196 1.75385 54.2196H16.6615C17.5385 54.2196 18.4154 53.3395 18.4154 52.4594Z" fill="url(#paint0_linear)"/>
  <defs>
    <linearGradient id="paint0_linear" x1="57.1585" y1="0.65344" x2="57.1585" y2="76.6269" gradientUnits="userSpaceOnUse">
      <stop stop-color="#5FBFFA"/>
      <stop offset="1" stop-color="#FF86C0"/>
    </linearGradient>
  </defs>
</svg>