<svg viewBox="0 0 114 76" fill="none" xmlns="http://www.w3.org/2000/svg"><path d="M114 60.087c-.146.44-.292.88-.438 1.173-.731 2.2-1.9 3.668-4.239 4.254-1.169.294-2.338.147-3.361-.293l-8.77-3.08c-3.8-1.174-7.6-2.054-11.546-2.788-.438-.146-.877 0-1.17.294-3.215 1.907-6.576 3.374-10.23 4.254-1.9.44-3.946.733-5.992 1.027-1.754.146-3.508.293-5.262.293-.877 0-1.753 0-2.63-.147-.585-.146-1.023.147-1.608.294a49.107 49.107 0 0 0-8.77 6.6c-.584.587-1.169 1.027-1.753 1.614-3.362 3.08-8.623 1.614-9.793-2.787 0-.147-.146-.44-.292-.734-.292.294-.584.44-.73.734-1.024 1.027-1.9 2.053-2.924 3.08-1.753 1.907-3.8 2.494-6.138 1.907-2.485-.733-4.092-2.347-4.677-4.84 0-.147-.146-.44-.292-.587v-2.787c0-.147.146-.147.146-.293.438-2.64 1.608-4.841 3.215-6.895 1.9-2.347 3.946-4.547 5.993-6.747.146-.147.292-.44.584-.587-.292-.44-.584-.733-.877-1.173-2.777-3.96-2.63-9.682.585-13.202 4.092-4.84 11.4-4.547 15.2.587.146.293.292.44.584.733 4.97-4.4 10.67-7.774 17.1-10.121-.292-.294-.584-.44-.877-.587-3.507-2.347-7.015-4.84-10.084-7.774-1.754-1.614-3.362-3.374-4.239-5.574-.292-.587-.438-1.32-.584-2.054-.439-3.52 2.046-5.574 4.53-6.16 2.047-.587 3.8-.587 5.7-.147 2.631.587 5.116 1.467 7.6 2.494.293.146.585.293 1.024.44a10.06 10.06 0 0 1-.585-1.467c-.585-1.614-.73-3.227-.585-4.988.147-1.76 1.17-2.933 2.777-3.52 1.9-.733 3.8-.733 5.7.147 1.608.733 2.923 1.76 4.239 2.933 2.338 2.347 4.238 4.988 5.992 7.921.73 1.174 1.316 2.347 1.9 3.52.292.44.585.588 1.023.734 3.654.294 7.162 1.027 10.523 2.347 3.216 1.32 6.139 3.227 8.185 6.16 1.9 2.935 2.777 6.015 2.046 9.535-.585 2.64-2.338 4.694-4.385 6.308-2.63 2.053-5.7 3.52-8.915 4.4-1.462.44-3.07.734-4.53 1.027-.147 0-.293 0-.44.294.147 0 .44.146.585.146 3.654.88 7.308 1.907 10.962 2.787.877.294 1.754.587 2.777.88 2.777 1.027 5.115 2.787 6.577 5.428.438.733.731 1.76 1.023 2.64 0 .147.146.44.146.587v1.76zM79.215 43.071c4.531 0 9.062-.586 13.447-1.466 2.63-.44 5.115-1.174 7.453-2.347 2.047-1.027 3.947-2.2 5.262-3.96 1.169-1.468 1.754-3.081 1.461-4.988-.146-1.467-.73-2.934-1.607-4.254-1.462-2.2-3.362-3.667-5.7-4.694-3.654-1.76-7.454-2.493-11.4-2.64-1.17 0-1.9-.44-2.339-1.467-.584-1.32-1.315-2.787-2.192-4.107-1.754-2.934-3.508-5.574-5.992-7.921-.877-.88-1.9-1.467-3.07-1.907-.73-.293-1.461-.293-2.338-.147-.877.294-1.17.587-1.023 1.467.146 2.054.584 3.96 1.608 5.868.438 1.026 1.169 1.906 1.607 2.787.439.733.439 1.466-.146 2.053-.584.587-1.315.734-2.046.44-.146 0-.146-.146-.292-.146-2.339-1.027-4.531-2.2-6.87-3.228-2.484-1.026-4.969-1.906-7.6-2.053-1.023 0-1.9 0-2.777.587-.876.586-1.023 1.173-.73 2.053.292.734.584 1.32.877 1.907 1.023 1.614 2.338 3.08 3.8 4.4 3.361 3.081 7.161 5.721 10.961 8.068.585.44 1.17.734 1.9 1.174.585.44 1.023 1.026.877 1.76-.146.733-.585 1.32-1.315 1.467-.293 0-.585.146-.877.146-4.385 1.027-8.477 2.788-12.423 5.134-2.923 1.76-5.554 3.961-8.039 6.308-1.169 1.173-2.484.88-3.215-.587a4.395 4.395 0 0 0-.585-1.173c-1.461-2.2-3.361-3.374-5.992-3.08-2.777.293-4.53 1.906-5.408 4.547-.877 2.933-.292 5.72 2.193 7.774 1.023.88 1.169 2.2.146 3.227-2.339 2.347-4.531 4.84-6.577 7.334a13.804 13.804 0 0 0-2.923 5.134c-.293 1.027-.439 2.054-.146 3.227.292 1.174 1.023 1.907 2.192 2.347 1.17.294 1.9-.147 2.63-1.027.732-.733 1.462-1.613 2.193-2.347 3.654-4.254 8.038-7.48 13.008-9.974.292-.147.73-.294 1.023-.294 2.192-.146 4.238.294 6.138 1.174.877.44 1.9.733 2.923 1.027 4.239 1.32 8.331 1.026 12.57.44 4.823-.587 9.207-2.347 13.153-4.987.439-.294 1.023-.44 1.608-.294 5.554.88 11.108 2.347 16.369 4.107 1.9.587 3.8 1.32 5.7 2.054 1.316.44 2.339 0 2.923-1.32.585-1.32.439-2.494-.146-3.814-1.023-2.054-2.631-3.374-4.677-4.107-2.192-.88-4.53-1.467-6.723-2.054-7.308-1.907-14.761-3.52-22.215-4.254-1.023-.146-1.754-.88-1.754-1.907 0-.88.877-1.613 1.9-1.613a28.22 28.22 0 0 0 3.215.147zM54.661 63.608c-1.753-.733-3.507-1.466-5.261-1.466-.292 0-.585 0-.877.146-2.338 1.027-4.53 2.494-6.43 4.254-.293.147-.44.587-.44.88v2.2c0 1.027.44 1.76 1.462 2.054 1.023.44 1.9.293 2.631-.44.439-.44.877-.733 1.316-1.174 2.192-2.2 4.53-4.253 7.161-6.014.146-.146.146-.293.438-.44zM92.37 25.176c-1.9 0-3.507 1.614-3.507 3.52 0 1.907 1.461 3.52 3.507 3.668 2.046 0 3.654-1.467 3.654-3.52-.146-2.055-1.608-3.521-3.654-3.668zm-60.8-4.107c0-1.027-.73-1.76-1.754-1.76H14.908c-1.023 0-1.754.733-1.754 1.76 0 1.027.73 1.76 1.754 1.76h14.907c.877 0 1.754-.733 1.754-1.76zM21.34 37.204c0-1.027-.731-1.76-1.754-1.76H4.677c-1.023 0-1.754.733-1.754 1.76 0 1.027.73 1.76 1.754 1.76h14.908c.877 0 1.753-.733 1.753-1.76zM18.415 52.46c0-1.026-.73-1.76-1.753-1.76H1.754C.73 50.7 0 51.433 0 52.46c0 1.027.73 1.76 1.754 1.76h14.908c.877 0 1.753-.88 1.753-1.76z" fill="url(#paint0_linear)"/><defs><linearGradient id="paint0_linear" x1="57.158" y1=".653" x2="57.158" y2="76.627" gradientUnits="userSpaceOnUse"><stop stop-color="#5FBFFA"/><stop offset="1" stop-color="#FF86C0"/></linearGradient></defs></svg>